<svg xmlns="http://www.w3.org/2000/svg" xmlns:xlink="http://www.w3.org/1999/xlink" width="253" height="181" viewBox="0 0 253 181"><div xmlns="" id="saka-gui-root"><div><div><style/></div></div></div>
    <defs>
        <path id="a" d="M0 181h252.626V.426H0z"/>
    </defs>
    <g fill="none" fill-rule="evenodd">
        <path fill="#FFF" d="M35.542 60.83L53.3 50.964l17.76 9.866v19.732L53.3 90.427l-17.758-9.865z"/>
        <g transform="translate(0 -.426)">
            <path stroke="#A5361D" stroke-width="2" d="M170.846 109.736l-6.565-8.27h-45.842l-6.35 8.27H58.293a4.957 4.957 0 0 0-4.957 4.957v58.836h117.51v-63.793zM183.621 51.781l17.758-9.866 17.76 9.866v19.732l-17.76 9.865-17.758-9.865zM201.38 81.379V61.647"/>
            <path stroke="#A5361D" stroke-width="2" d="M219.138 51.781l-17.758 9.866-17.76-9.866M40.301 70.8l17.758-9.866L75.82 70.8v19.732l-17.76 9.865-17.758-9.865zM58.06 100.397V80.665"/>
            <path stroke="#A5361D" stroke-width="2" d="M75.818 70.8L58.06 80.666 40.301 70.8"/>
            <path fill="#FFF" d="M110.69 18.013l17.759-9.866 17.759 9.866v19.732l-17.76 9.865-17.757-9.865z"/>
            <path stroke="#A5361D" stroke-width="2" d="M113.321 11.435L131.08 1.57l17.76 9.866v19.732l-17.76 9.865-17.758-9.864zM131.08 41.033V21.3"/>
            <path stroke="#A5361D" stroke-width="2" d="M148.838 11.435l-17.758 9.867-17.759-9.867"/>
            <path fill="#FFF" d="M135.398 118.463l-8.954-23.807 37.2-13.99 8.953 23.806z"/>
            <path stroke="#344154" stroke-linecap="round" stroke-linejoin="round" stroke-width="2" d="M135.398 118.463l-8.954-23.807 37.2-13.99 8.953 23.806z"/>
            <path fill="#FF6464" d="M171.478 101.497l-14.244-10.778-4.642 10.238-16.38-7.427-1.933 21.958z"/>
            <path stroke="#344154" stroke-linecap="round" stroke-linejoin="round" stroke-width="2" d="M131.201 107.304l6.13-10.798M137.33 96.506l16.382 7.427M153.711 103.933l4.642-10.238M171.198 100.753l-12.845-7.058M153.33 93.886a3.179 3.179 0 1 1-5.951 2.238 3.179 3.179 0 0 1 5.95-2.238z"/>
            <path fill="#FFF" d="M71.104 115.444l10.994-22.937 35.838 17.178-10.993 22.937z"/>
            <path stroke="#344154" stroke-linecap="round" stroke-linejoin="round" stroke-width="2" d="M71.104 115.444l10.994-22.937 35.838 17.178-10.993 22.937z"/>
            <path fill="#FF6464" d="M108.317 129.754l-2.074-17.74-10.603 3.731-5.972-16.965-17.19 13.796z"/>
            <path stroke="#344154" stroke-linecap="round" stroke-linejoin="round" stroke-width="2" d="M76.258 104.692l12.037-3.045M88.294 101.647l5.972 16.965M94.266 118.612l10.603-3.732M108.66 129.038l-3.791-14.157M101.256 111.385a3.18 3.18 0 1 1-5.735-2.749 3.18 3.18 0 0 1 5.735 2.75z"/>
            <path fill="#F27A7C" d="M180.355 118.517l-6.565-8.268h-45.842l-6.35 8.269H67.607a5.654 5.654 0 0 0-5.572 4.692l-8.7 50.419h117.512l9.509-55.111z"/>
            <path fill="#FFF" d="M173.621 128.274l-4.975-7.474h-45.842l-6.349 8.269H62.462a5.654 5.654 0 0 0-5.572 4.693L47.396 181h117.511l8.714-52.726z"/>
            <path stroke="#A5361D" stroke-width="2" d="M180.355 118.418l-6.565-8.269h-45.842l-6.35 8.269H67.607a5.654 5.654 0 0 0-5.572 4.693l-8.7 50.418h117.512l9.509-55.111z"/>
            <path fill="#F27A7C" d="M214.536 173.516h-66.42a9.227 9.227 0 0 1-9.226-9.228V78.62a9.227 9.227 0 0 1 9.227-9.228h66.419a9.228 9.228 0 0 1 9.228 9.228v85.667a9.228 9.228 0 0 1-9.228 9.228"/>
            <path fill="#FFF" d="M225.536 180.516h-66.42a9.227 9.227 0 0 1-9.226-9.228V85.62a9.227 9.227 0 0 1 9.227-9.228h66.419a9.228 9.228 0 0 1 9.228 9.228v85.667a9.228 9.228 0 0 1-9.228 9.228"/>
            <path stroke="#A5361D" stroke-width="2" d="M214.536 173.516h-66.42a9.227 9.227 0 0 1-9.226-9.228V78.62a9.227 9.227 0 0 1 9.227-9.228h66.419a9.228 9.228 0 0 1 9.228 9.228v85.667a9.228 9.228 0 0 1-9.228 9.228z"/>
            <mask id="b" fill="#fff">
                <use xlink:href="#a"/>
            </mask>
            <path stroke="#A5361D" stroke-width="2" d="M154.684 87.582h53.335V69.393h-53.335zM164.38 87.582V69.393M175.577 87.582V69.393M185.374 87.582V69.393M196.57 87.582V69.393M207.282 109.78c-4.914 0-8.897-4.253-8.897-9.5H164.38c0 5.247-3.983 9.5-8.897 9.5-.286 0-.57-.017-.848-.045v39.56c4.913 0 8.897 4.255 8.897 9.502 0 .159-.015.314-.023.472h35.636c-.008-.158-.023-.313-.023-.472 0-5.247 3.984-9.501 8.897-9.501V109.74a8.17 8.17 0 0 1-.737.04z" mask="url(#b)"/>
            <path fill="#F27A7C" d="M210.216 99.687a3.128 3.128 0 1 1-6.256 0 3.128 3.128 0 0 1 6.256 0" mask="url(#b)"/>
            <path stroke="#A5361D" stroke-width="2" d="M210.216 99.687a3.128 3.128 0 1 1-6.256 0 3.128 3.128 0 0 1 6.256 0z" mask="url(#b)"/>
            <path fill="#F27A7C" d="M158.172 99.687a3.128 3.128 0 1 1-6.256 0 3.128 3.128 0 0 1 6.256 0" mask="url(#b)"/>
            <path stroke="#A5361D" stroke-width="2" d="M158.172 99.687a3.128 3.128 0 1 1-6.256 0 3.128 3.128 0 0 1 6.256 0z" mask="url(#b)"/>
            <path fill="#F27A7C" d="M211.216 159.473a3.128 3.128 0 1 1-6.256 0 3.128 3.128 0 0 1 6.256 0" mask="url(#b)"/>
            <path stroke="#A5361D" stroke-width="2" d="M211.216 159.473a3.128 3.128 0 1 1-6.256 0 3.128 3.128 0 0 1 6.256 0z" mask="url(#b)"/>
            <path fill="#F27A7C" d="M158.172 159.473a3.128 3.128 0 1 1-6.256 0 3.128 3.128 0 0 1 6.256 0" mask="url(#b)"/>
            <path stroke="#A5361D" stroke-width="2" d="M158.172 159.473a3.128 3.128 0 1 1-6.256 0 3.128 3.128 0 0 1 6.256 0zM53.334 126.447v47.082" mask="url(#b)"/>
            <path stroke="#344154" stroke-linecap="round" stroke-linejoin="round" stroke-width="2" d="M1 173.674h250.626" mask="url(#b)"/>
            <path fill="#FFF" d="M91.662 47.61a3.368 3.368 0 1 1-6.736 0 3.368 3.368 0 0 1 6.736 0" mask="url(#b)"/>
            <path stroke="#344154" stroke-linecap="round" stroke-linejoin="round" stroke-width="2" d="M91.662 47.61a3.368 3.368 0 1 1-6.736 0 3.368 3.368 0 0 1 6.736 0z" mask="url(#b)"/>
            <path fill="#FFF" d="M115.42 74.862a3.368 3.368 0 1 1-6.737 0 3.368 3.368 0 0 1 6.736 0" mask="url(#b)"/>
            <path stroke="#344154" stroke-linecap="round" stroke-linejoin="round" stroke-width="2" d="M115.42 74.862a3.368 3.368 0 1 1-6.737 0 3.368 3.368 0 0 1 6.736 0z" mask="url(#b)"/>
            <path fill="#FFF" d="M34.318 117.742a3.368 3.368 0 1 1-6.736 0 3.368 3.368 0 0 1 6.736 0" mask="url(#b)"/>
            <path stroke="#344154" stroke-linecap="round" stroke-linejoin="round" stroke-width="2" d="M34.318 117.742a3.368 3.368 0 1 1-6.736 0 3.368 3.368 0 0 1 6.736 0z" mask="url(#b)"/>
        </g>
    </g>
</svg>